<?xml version="1.0" encoding="UTF-8"?>
<svg xmlns="http://www.w3.org/2000/svg" xmlns:xlink="http://www.w3.org/1999/xlink" width="1200" height="600">
  <g id="l"><circle cx="25" cy="25" r="17" fill="none" stroke="#000" stroke-width="4"/><circle cx="25" cy="25" r="6"/></g>
  <circle cx="75" cy="25" r="17" fill="none" stroke="#ccc" stroke-width="4" id="o"/>
  <use xlink:href="#o" transform="translate(50 0)"/>
  <use xlink:href="#o" transform="translate(100 0)"/>
  <use xlink:href="#o" transform="translate(150 0)"/>
  <use xlink:href="#o" transform="translate(200 0)"/>
  <use xlink:href="#o" transform="translate(250 0)"/>
  <use xlink:href="#o" transform="translate(300 0)"/>
  <use xlink:href="#o" transform="translate(350 0)"/>
  <use xlink:href="#o" transform="translate(400 0)"/>
  <use xlink:href="#o" transform="translate(450 0)"/>
  <use xlink:href="#o" transform="translate(500 0)"/>
  <use xlink:href="#l" transform="translate(600 0)"/>
  <use xlink:href="#o" transform="translate(600 0)"/>
  <use xlink:href="#o" transform="translate(650 0)"/>
  <use xlink:href="#l" transform="translate(750 0)"/>
  <use xlink:href="#l" transform="translate(800 0)"/>
  <use xlink:href="#l" transform="translate(850 0)"/>
  <use xlink:href="#l" transform="translate(900 0)"/>
  <use xlink:href="#l" transform="translate(950 0)"/>
  <use xlink:href="#o" transform="translate(950 0)"/>
  <use xlink:href="#o" transform="translate(1000 0)"/>
  <use xlink:href="#o" transform="translate(1050 0)"/>
  <use xlink:href="#l" transform="translate(1150 0)"/>
  <use xlink:href="#o" transform="translate(-50 50)"/>
  <use xlink:href="#l" transform="translate(50 50)"/>
  <use xlink:href="#o" transform="translate(50 50)"/>
  <use xlink:href="#o" transform="translate(100 50)"/>
  <use xlink:href="#o" transform="translate(150 50)"/>
  <use xlink:href="#o" transform="translate(200 50)"/>
  <use xlink:href="#o" transform="translate(250 50)"/>
  <use xlink:href="#o" transform="translate(300 50)"/>
  <use xlink:href="#o" transform="translate(350 50)"/>
  <use xlink:href="#o" transform="translate(400 50)"/>
  <use xlink:href="#o" transform="translate(450 50)"/>
  <use xlink:href="#o" transform="translate(500 50)"/>
  <use xlink:href="#o" transform="translate(550 50)"/>
  <use xlink:href="#l" transform="translate(650 50)"/>
  <use xlink:href="#o" transform="translate(650 50)"/>
  <use xlink:href="#o" transform="translate(700 50)"/>
  <use xlink:href="#l" transform="translate(800 50)"/>
  <use xlink:href="#l" transform="translate(850 50)"/>
  <use xlink:href="#l" transform="translate(900 50)"/>
  <use xlink:href="#l" transform="translate(950 50)"/>
  <use xlink:href="#l" transform="translate(1000 50)"/>
  <use xlink:href="#o" transform="translate(1000 50)"/>
  <use xlink:href="#l" transform="translate(1100 50)"/>
  <use xlink:href="#o" transform="translate(1100 50)"/>
  <use xlink:href="#o" transform="translate(-50 100)"/>
  <use xlink:href="#o" transform="translate(0 100)"/>
  <use xlink:href="#l" transform="translate(100 100)"/>
  <use xlink:href="#o" transform="translate(100 100)"/>
  <use xlink:href="#o" transform="translate(150 100)"/>
  <use xlink:href="#o" transform="translate(200 100)"/>
  <use xlink:href="#o" transform="translate(250 100)"/>
  <use xlink:href="#o" transform="translate(300 100)"/>
  <use xlink:href="#o" transform="translate(350 100)"/>
  <use xlink:href="#o" transform="translate(400 100)"/>
  <use xlink:href="#o" transform="translate(450 100)"/>
  <use xlink:href="#o" transform="translate(500 100)"/>
  <use xlink:href="#o" transform="translate(550 100)"/>
  <use xlink:href="#o" transform="translate(600 100)"/>
  <use xlink:href="#l" transform="translate(700 100)"/>
  <use xlink:href="#o" transform="translate(700 100)"/>
  <use xlink:href="#o" transform="translate(750 100)"/>
  <use xlink:href="#l" transform="translate(850 100)"/>
  <use xlink:href="#l" transform="translate(900 100)"/>
  <use xlink:href="#l" transform="translate(950 100)"/>
  <use xlink:href="#l" transform="translate(1000 100)"/>
  <use xlink:href="#l" transform="translate(1050 100)"/>
  <use xlink:href="#o" transform="translate(1050 100)"/>
  <use xlink:href="#l" transform="translate(1150 100)"/>
  <use xlink:href="#o" transform="translate(-50 150)"/>
  <use xlink:href="#o" transform="translate(0 150)"/>
  <use xlink:href="#o" transform="translate(50 150)"/>
  <use xlink:href="#l" transform="translate(150 150)"/>
  <use xlink:href="#o" transform="translate(150 150)"/>
  <use xlink:href="#o" transform="translate(200 150)"/>
  <use xlink:href="#o" transform="translate(250 150)"/>
  <use xlink:href="#o" transform="translate(300 150)"/>
  <use xlink:href="#o" transform="translate(350 150)"/>
  <use xlink:href="#o" transform="translate(400 150)"/>
  <use xlink:href="#o" transform="translate(450 150)"/>
  <use xlink:href="#o" transform="translate(500 150)"/>
  <use xlink:href="#l" transform="translate(600 150)"/>
  <use xlink:href="#o" transform="translate(600 150)"/>
  <use xlink:href="#o" transform="translate(650 150)"/>
  <use xlink:href="#l" transform="translate(750 150)"/>
  <use xlink:href="#o" transform="translate(750 150)"/>
  <use xlink:href="#o" transform="translate(800 150)"/>
  <use xlink:href="#l" transform="translate(900 150)"/>
  <use xlink:href="#l" transform="translate(950 150)"/>
  <use xlink:href="#l" transform="translate(1000 150)"/>
  <use xlink:href="#l" transform="translate(1050 150)"/>
  <use xlink:href="#l" transform="translate(1100 150)"/>
  <use xlink:href="#o" transform="translate(1100 150)"/>
  <use xlink:href="#o" transform="translate(-50 200)"/>
  <use xlink:href="#o" transform="translate(0 200)"/>
  <use xlink:href="#o" transform="translate(50 200)"/>
  <use xlink:href="#o" transform="translate(100 200)"/>
  <use xlink:href="#l" transform="translate(200 200)"/>
  <use xlink:href="#o" transform="translate(200 200)"/>
  <use xlink:href="#o" transform="translate(250 200)"/>
  <use xlink:href="#o" transform="translate(300 200)"/>
  <use xlink:href="#o" transform="translate(350 200)"/>
  <use xlink:href="#o" transform="translate(400 200)"/>
  <use xlink:href="#o" transform="translate(450 200)"/>
  <use xlink:href="#o" transform="translate(500 200)"/>
  <use xlink:href="#l" transform="translate(600 200)"/>
  <use xlink:href="#l" transform="translate(650 200)"/>
  <use xlink:href="#o" transform="translate(650 200)"/>
  <use xlink:href="#o" transform="translate(700 200)"/>
  <use xlink:href="#l" transform="translate(800 200)"/>
  <use xlink:href="#o" transform="translate(800 200)"/>
  <use xlink:href="#o" transform="translate(850 200)"/>
  <use xlink:href="#l" transform="translate(950 200)"/>
  <use xlink:href="#l" transform="translate(1000 200)"/>
  <use xlink:href="#l" transform="translate(1050 200)"/>
  <use xlink:href="#o" transform="translate(1050 200)"/>
  <use xlink:href="#l" transform="translate(1150 200)"/>
  <use xlink:href="#o" transform="translate(-50 250)"/>
  <use xlink:href="#o" transform="translate(0 250)"/>
  <use xlink:href="#o" transform="translate(50 250)"/>
  <use xlink:href="#o" transform="translate(100 250)"/>
  <use xlink:href="#o" transform="translate(150 250)"/>
  <use xlink:href="#l" transform="translate(250 250)"/>
  <use xlink:href="#o" transform="translate(250 250)"/>
  <use xlink:href="#o" transform="translate(300 250)"/>
  <use xlink:href="#o" transform="translate(350 250)"/>
  <use xlink:href="#o" transform="translate(400 250)"/>
  <use xlink:href="#o" transform="translate(450 250)"/>
  <use xlink:href="#o" transform="translate(500 250)"/>
  <use xlink:href="#l" transform="translate(600 250)"/>
  <use xlink:href="#l" transform="translate(650 250)"/>
  <use xlink:href="#l" transform="translate(700 250)"/>
  <use xlink:href="#o" transform="translate(700 250)"/>
  <use xlink:href="#o" transform="translate(750 250)"/>
  <use xlink:href="#l" transform="translate(850 250)"/>
  <use xlink:href="#o" transform="translate(850 250)"/>
  <use xlink:href="#o" transform="translate(900 250)"/>
  <use xlink:href="#l" transform="translate(1000 250)"/>
  <use xlink:href="#l" transform="translate(1050 250)"/>
  <use xlink:href="#l" transform="translate(1100 250)"/>
  <use xlink:href="#o" transform="translate(1100 250)"/>
  <use xlink:href="#o" transform="translate(-50 300)"/>
  <use xlink:href="#o" transform="translate(0 300)"/>
  <use xlink:href="#o" transform="translate(50 300)"/>
  <use xlink:href="#o" transform="translate(100 300)"/>
  <use xlink:href="#o" transform="translate(150 300)"/>
  <use xlink:href="#o" transform="translate(200 300)"/>
  <use xlink:href="#l" transform="translate(300 300)"/>
  <use xlink:href="#o" transform="translate(300 300)"/>
  <use xlink:href="#o" transform="translate(350 300)"/>
  <use xlink:href="#o" transform="translate(400 300)"/>
  <use xlink:href="#o" transform="translate(450 300)"/>
  <use xlink:href="#o" transform="translate(500 300)"/>
  <use xlink:href="#l" transform="translate(600 300)"/>
  <use xlink:href="#l" transform="translate(650 300)"/>
  <use xlink:href="#l" transform="translate(700 300)"/>
  <use xlink:href="#l" transform="translate(750 300)"/>
  <use xlink:href="#o" transform="translate(750 300)"/>
  <use xlink:href="#o" transform="translate(800 300)"/>
  <use xlink:href="#l" transform="translate(900 300)"/>
  <use xlink:href="#o" transform="translate(900 300)"/>
  <use xlink:href="#o" transform="translate(950 300)"/>
  <use xlink:href="#l" transform="translate(1050 300)"/>
  <use xlink:href="#o" transform="translate(1050 300)"/>
  <use xlink:href="#l" transform="translate(1150 300)"/>
  <use xlink:href="#o" transform="translate(-50 350)"/>
  <use xlink:href="#o" transform="translate(0 350)"/>
  <use xlink:href="#o" transform="translate(50 350)"/>
  <use xlink:href="#o" transform="translate(100 350)"/>
  <use xlink:href="#o" transform="translate(150 350)"/>
  <use xlink:href="#o" transform="translate(200 350)"/>
  <use xlink:href="#o" transform="translate(250 350)"/>
  <use xlink:href="#l" transform="translate(350 350)"/>
  <use xlink:href="#o" transform="translate(350 350)"/>
  <use xlink:href="#o" transform="translate(400 350)"/>
  <use xlink:href="#o" transform="translate(450 350)"/>
  <use xlink:href="#o" transform="translate(500 350)"/>
  <use xlink:href="#l" transform="translate(600 350)"/>
  <use xlink:href="#l" transform="translate(650 350)"/>
  <use xlink:href="#l" transform="translate(700 350)"/>
  <use xlink:href="#l" transform="translate(750 350)"/>
  <use xlink:href="#l" transform="translate(800 350)"/>
  <use xlink:href="#o" transform="translate(800 350)"/>
  <use xlink:href="#o" transform="translate(850 350)"/>
  <use xlink:href="#l" transform="translate(950 350)"/>
  <use xlink:href="#o" transform="translate(950 350)"/>
  <use xlink:href="#o" transform="translate(1000 350)"/>
  <use xlink:href="#l" transform="translate(1100 350)"/>
  <use xlink:href="#o" transform="translate(1100 350)"/>
  <use xlink:href="#o" transform="translate(-50 400)"/>
  <use xlink:href="#o" transform="translate(0 400)"/>
  <use xlink:href="#o" transform="translate(50 400)"/>
  <use xlink:href="#o" transform="translate(100 400)"/>
  <use xlink:href="#o" transform="translate(150 400)"/>
  <use xlink:href="#o" transform="translate(200 400)"/>
  <use xlink:href="#o" transform="translate(250 400)"/>
  <use xlink:href="#o" transform="translate(300 400)"/>
  <use xlink:href="#l" transform="translate(400 400)"/>
  <use xlink:href="#o" transform="translate(400 400)"/>
  <use xlink:href="#o" transform="translate(450 400)"/>
  <use xlink:href="#o" transform="translate(500 400)"/>
  <use xlink:href="#o" transform="translate(550 400)"/>
  <use xlink:href="#l" transform="translate(650 400)"/>
  <use xlink:href="#l" transform="translate(700 400)"/>
  <use xlink:href="#l" transform="translate(750 400)"/>
  <use xlink:href="#l" transform="translate(800 400)"/>
  <use xlink:href="#l" transform="translate(850 400)"/>
  <use xlink:href="#o" transform="translate(850 400)"/>
  <use xlink:href="#o" transform="translate(900 400)"/>
  <use xlink:href="#l" transform="translate(1000 400)"/>
  <use xlink:href="#o" transform="translate(1000 400)"/>
  <use xlink:href="#o" transform="translate(1050 400)"/>
  <use xlink:href="#l" transform="translate(1150 400)"/>
  <use xlink:href="#o" transform="translate(-50 450)"/>
  <use xlink:href="#o" transform="translate(0 450)"/>
  <use xlink:href="#o" transform="translate(50 450)"/>
  <use xlink:href="#o" transform="translate(100 450)"/>
  <use xlink:href="#o" transform="translate(150 450)"/>
  <use xlink:href="#o" transform="translate(200 450)"/>
  <use xlink:href="#o" transform="translate(250 450)"/>
  <use xlink:href="#o" transform="translate(300 450)"/>
  <use xlink:href="#o" transform="translate(350 450)"/>
  <use xlink:href="#l" transform="translate(450 450)"/>
  <use xlink:href="#o" transform="translate(450 450)"/>
  <use xlink:href="#o" transform="translate(500 450)"/>
  <use xlink:href="#o" transform="translate(550 450)"/>
  <use xlink:href="#o" transform="translate(600 450)"/>
  <use xlink:href="#l" transform="translate(700 450)"/>
  <use xlink:href="#l" transform="translate(750 450)"/>
  <use xlink:href="#l" transform="translate(800 450)"/>
  <use xlink:href="#l" transform="translate(850 450)"/>
  <use xlink:href="#l" transform="translate(900 450)"/>
  <use xlink:href="#o" transform="translate(900 450)"/>
  <use xlink:href="#o" transform="translate(950 450)"/>
  <use xlink:href="#l" transform="translate(1050 450)"/>
  <use xlink:href="#l" transform="translate(1100 450)"/>
  <use xlink:href="#o" transform="translate(1100 450)"/>
  <use xlink:href="#o" transform="translate(-50 500)"/>
  <use xlink:href="#o" transform="translate(0 500)"/>
  <use xlink:href="#o" transform="translate(50 500)"/>
  <use xlink:href="#o" transform="translate(100 500)"/>
  <use xlink:href="#o" transform="translate(150 500)"/>
  <use xlink:href="#o" transform="translate(200 500)"/>
  <use xlink:href="#o" transform="translate(250 500)"/>
  <use xlink:href="#o" transform="translate(300 500)"/>
  <use xlink:href="#o" transform="translate(350 500)"/>
  <use xlink:href="#o" transform="translate(400 500)"/>
  <use xlink:href="#l" transform="translate(500 500)"/>
  <use xlink:href="#o" transform="translate(500 500)"/>
  <use xlink:href="#o" transform="translate(550 500)"/>
  <use xlink:href="#l" transform="translate(650 500)"/>
  <use xlink:href="#o" transform="translate(650 500)"/>
  <use xlink:href="#l" transform="translate(750 500)"/>
  <use xlink:href="#o" transform="translate(750 500)"/>
  <use xlink:href="#l" transform="translate(850 500)"/>
  <use xlink:href="#o" transform="translate(850 500)"/>
  <use xlink:href="#l" transform="translate(950 500)"/>
  <use xlink:href="#o" transform="translate(950 500)"/>
  <use xlink:href="#l" transform="translate(1050 500)"/>
  <use xlink:href="#l" transform="translate(1100 500)"/>
  <use xlink:href="#l" transform="translate(1150 500)"/>
  <use xlink:href="#o" transform="translate(-50 550)"/>
  <use xlink:href="#o" transform="translate(0 550)"/>
  <use xlink:href="#o" transform="translate(50 550)"/>
  <use xlink:href="#o" transform="translate(100 550)"/>
  <use xlink:href="#o" transform="translate(150 550)"/>
  <use xlink:href="#o" transform="translate(200 550)"/>
  <use xlink:href="#o" transform="translate(250 550)"/>
  <use xlink:href="#o" transform="translate(300 550)"/>
  <use xlink:href="#o" transform="translate(350 550)"/>
  <use xlink:href="#o" transform="translate(400 550)"/>
  <use xlink:href="#o" transform="translate(450 550)"/>
  <use xlink:href="#l" transform="translate(550 550)"/>
  <use xlink:href="#l" transform="translate(600 550)"/>
  <use xlink:href="#o" transform="translate(600 550)"/>
  <use xlink:href="#l" transform="translate(700 550)"/>
  <use xlink:href="#o" transform="translate(700 550)"/>
  <use xlink:href="#l" transform="translate(800 550)"/>
  <use xlink:href="#o" transform="translate(800 550)"/>
  <use xlink:href="#l" transform="translate(900 550)"/>
  <use xlink:href="#o" transform="translate(900 550)"/>
  <use xlink:href="#l" transform="translate(1000 550)"/>
  <use xlink:href="#o" transform="translate(1000 550)"/>
  <use xlink:href="#l" transform="translate(1100 550)"/>
  <use xlink:href="#l" transform="translate(1150 550)"/>
</svg>
